# xmcd
#
# Track frame offsets: 
#        182
#        13107
#        27825
#        38070
#        55725
#        80230
#        93915
#        111505
#        124972
#        144190
#        146172
#        158080
#        163320
#        177835
#        191882
#
# Disc length: 2752 seconds
#
# Revision: 3
# Processed by: cddbd v1.5.2PL0 Copyright (c) Steve Scherf et al.
# Submitted via: ExactAudioCopy v0.99pb5
#
DISCID=d30abe0f
DTITLE=Various Artist - White Mansions - A Tale From the American Civil War 1
DTITLE=861-1865
DYEAR=1978
DGENRE=Southern Rock
TTITLE0=Story To Tell (The Preface): Polly
TTITLE1=Dixie, Hold On: The Drifter
TTITLE2=Join Around The Flag: Mathew
TTITLE3=White Trash: Caleb
TTITLE4=The Last Dance and The Kentucky Racehorse: Mathew and Polly
TTITLE5=Southern Boys: Caleb
TTITLE6=The Union Mare and The Confederate Grey: The Drifter
TTITLE7=No One Would Believe A Summer Could Be So Damn Cold: Mathew
TTITLE8=The Southland's Bleeding: The Drifter
TTITLE9=Bring Up The Twelve Pounders: Mathew
TTITLE10=They Laid Waste To Our Land: Caleb, Mathew and The Drifter
TTITLE11=Praise The Lord: The Slaves
TTITLE12=The King Has Called Me Home: Caleb
TTITLE13=Bad Man: Mathew
TTITLE14=Dixie, Now You're Done: The Drifter
EXTD=
EXTT0=
EXTT1=
EXTT2=
EXTT3=
EXTT4=
EXTT5=
EXTT6=
EXTT7=
EXTT8=
EXTT9=
EXTT10=
EXTT11=
EXTT12=
EXTT13=
EXTT14=
PLAYORDER=
